`                                                                  
               ,o888888o.     8 888888888o.      8 888888888o.      
            . 8888     `88.   8 8888    `^888.   8 8888    `^888.   
           ,8 8888       `8b  8 8888        `88. 8 8888        `88. 
           88 8888        `8b 8 8888         `88 8 8888         `88 
           88 8888         88 8 8888          88 8 8888          88 
           88 8888         88 8 8888          88 8 8888          88 
           88 8888        ,8P 8 8888         ,88 8 8888         ,88 
           `8 8888       ,8P  8 8888        ,88' 8 8888        ,88' 
            ` 8888     ,88'   8 8888    ,o88P'   8 8888    ,o88P'   
               `8888888P'     8 888888888P'      8 888888888P' 
     
                                   oddball                               
      8 888888888o            .8.  -links  8 8888         8 8888         
      8 8888    `88.         .888. .       8 8888         8 8888         
      8 8888     `88        :88888. c      8 8888         8 8888         
      8 8888     ,88       . `88888. o     8 8888         8 8888         
      8 8888.   ,88'      .8. `88888. m    8 8888         8 8888         
      8 8888888888       .8`8. `88888.     8 8888         8 8888         
      8 8888    `88.    .8' `8. `88888.    8 8888         8 8888         
      8 8888      88   .8'   `8. `88888.   8 8888         8 8888         
      8 8888    ,88'  .888888888. `88888.  8 8888         8 8888         
      8 888888888P   .8'       `8. `88888. 8 888888888888 8 888888888888 `                                                                                                 The Unborn is a 2009 supernatural horror-thriller film written and directed by David S. Goyer. The film stars Gary Oldman as a spiritual advisor to a young girl (Odette Yustman) who is tormented by a dybbuk. The dybbuk seeks to use her death as a gateway to physical existence.The film is produced by Michael Bay and Platinum Dunes. It was released in American theaters on January 9, 2009, by Rogue Pictures. The film was a critical failure, but a financial success. `                                                                                                                            Screen Shots `                                                                                  http://i724.photobucket.com/albums/ww246/oddball-links/Unborn/5.jpg
 
http://i724.photobucket.com/albums/ww246/oddball-links/Unborn/4.jpg
 
http://i724.photobucket.com/albums/ww246/oddball-links/Unborn/3.jpg
 
http://i724.photobucket.com/albums/ww246/oddball-links/Unborn/2.jpg
 
http://i724.photobucket.com/albums/ww246/oddball-links/Unborn/1.jpg `                                                                                                                      Cast `                                                                                  Actor                              Role `                                                                                                 Odette Yustman ................... Casey Beldon 
Gary Oldman ...................... Rabbi Joseph Sendak 
Ethan Cutkosky ................... Barto 
Cam Gigandet ..................... Mark Hardigan 
Meagan Good ...................... Romy 
Jane Alexander ................... Sofi Kozma 
James Remar ...................... Gordon Beldon 
Idris Elba ....................... Arthur Wyndhamy 
Atticus Shaffer .................. Matty 
Rhys Coiro ....................... Mr. Shields 
Carla Gugino ..................... Janet Beldon 
Aiden David ...................... Baby Nelson 
Conner David ..................... Baby Nelson 
Rachel Brosnahan ................. Lisa Shephard `                                                                                             General
Complete name                    : The Unbon
Format                           : AVI
Format/Info                      : Audio Video Interleave
File size                        : 595 MiB
Duration                         : 1h 25mn
Overall bit rate                 : 978 Kbps

Video
Format                           : MPEG-4 Visual
Format profile                   : Streaming Video@L1
Format settings, BVOP            : Yes
Format settings, QPel            : No
Format settings, GMC             : No warppoints
Format settings, Matrix          : Default
Muxing mode                      : Packed bitstream
Codec ID                         : XVID
Codec ID/Hint                    : XviD
Duration                         : 1h 25mn
Bit rate                         : 774 Kbps
Width                            : 1 024 pixels
Height                           : 582 pixels
Display aspect ratio             : 16/9
Frame rate                       : 29.970 fps
Resolution                       : 24 bits
Colorimetry                      : 4:2:0
Scan type                        : Progressive
Bits/(Pixel*Frame)               : 0.043
Stream size                      : 471 MiB (79%)
Writing library                  : XviD 1.1.0 (UTC 2005-11-22)

Audio
Format                           : MPEG Audio
Format version                   : Version 1
Format profile                   : Layer 3
Codec ID                         : 55
Codec ID/Hint                    : MP3
Duration                         : 1h 25mn
Bit rate mode                    : Constant
Bit rate                         : 192 Kbps
Channel(s)                       : 2 channels
Sampling rate                    : 44.1 KHz
Resolution                       : 16 bits
Video delay                      : 26ms
Stream size                      : 117 MiB (20%)
Alignment                        : Split accross interleaves
Interleave, duration             : 33 ms (1.00 video frame)
Title                            : Audio Stream
Writing library                  : LAME3.92 `                                                                                                For more oddball torrents  http://thepiratebay.org/user/oddball-links `                                                                                                                     Please seed after downloading `                                                                                                         :::===  :::===== :::===== :::====       :::= === :::====  :::====
        :::     :::      :::      :::  ===      :::===== :::  === :::====
         =====  ======   ======   ===  ===      ======== ===  ===   ===  
            === ===      ===      ===  ===      === ==== ===  ===   ===  
        ======  ======== ======== =======       ===  ===  ======    ===  
                                                                         
                  :::=====  :::====  :::===== :::===== :::==== 
                  :::       :::  === :::      :::      :::  ===
                  === ===== =======  ======   ======   ===  ===
                  ===   === === ===  ===      ===      ===  ===
                   =======  ===  === ======== ======== =======	
